<svg width="481" height="98" viewBox="0 0 481 98" fill="none" xmlns="http://www.w3.org/2000/svg">
<ellipse cx="49.0065" cy="49" rx="49.0065" ry="49" fill="#462AC4"/>
<path d="M49.0059 15.5909C57.8729 15.5909 65.9333 19.0444 71.9151 24.6795C72.3172 25.0582 72.3162 25.6927 71.9256 26.0832L63.8897 34.1183C63.4992 34.5087 62.8677 34.5067 62.4583 34.1361C58.901 30.9157 54.1824 28.9542 49.0059 28.9542C37.9338 28.9544 28.958 37.9294 28.958 49.0001C28.9581 60.0707 37.9338 69.0448 49.0059 69.045C54.1823 69.045 58.9002 67.0831 62.4574 63.863C62.8667 63.4924 63.4982 63.4903 63.8887 63.8808L71.9255 71.916C72.3161 72.3065 72.3172 72.9409 71.9151 73.3197C65.9333 78.9551 57.8731 82.4092 49.0059 82.4092C30.5523 82.409 15.5928 67.4512 15.5928 49.0001C15.5928 30.5489 30.5523 15.5911 49.0059 15.5909Z" fill="white"/>
<ellipse cx="49.0065" cy="49" rx="11.1378" ry="11.1364" fill="white"/>
<path d="M150.357 76.4846C134.318 76.4846 121.889 65.2591 121.889 48.8218C121.889 32.3846 134.318 21.1591 150.357 21.1591C162.145 21.1591 168.962 27.5737 172.731 34.2288L162.947 39.0397C160.702 34.7099 155.89 31.262 150.357 31.262C140.654 31.262 133.597 38.7189 133.597 48.8218C133.597 58.9248 140.654 66.3817 150.357 66.3817C155.89 66.3817 160.702 63.014 162.947 58.604L172.731 63.3348C168.881 69.9899 162.145 76.4846 150.357 76.4846Z" fill="#2D3748"/>
<path d="M197.632 76.4846C184.882 76.4846 177.183 67.1835 177.183 56.1184C177.183 45.1335 184.882 35.8324 197.632 35.8324C210.463 35.8324 218.161 45.1335 218.161 56.1184C218.161 67.1835 210.463 76.4846 197.632 76.4846ZM197.632 67.424C203.967 67.424 207.576 62.2122 207.576 56.1184C207.576 50.1048 203.967 44.8929 197.632 44.8929C191.297 44.8929 187.769 50.1048 187.769 56.1184C187.769 62.2122 191.297 67.424 197.632 67.424Z" fill="#2D3748"/>
<path d="M262.445 75.5224H252.261V52.1093C252.261 46.7371 249.454 44.8929 245.124 44.8929C241.114 44.8929 237.987 47.138 236.303 49.4633V75.5224H226.118V36.7946H236.303V41.846C238.788 38.8793 243.52 35.8324 249.855 35.8324C258.355 35.8324 262.445 40.6433 262.445 48.1804V75.5224Z" fill="#2D3748"/>
<path d="M285.469 75.5224H275.204V45.6948H268.789V36.7946H275.204V34.7098C275.204 26.4511 280.497 21.2393 288.275 21.2393C291.964 21.2393 295.894 22.2015 298.38 24.8475L294.53 30.8611C293.488 29.8188 292.125 29.2575 290.28 29.2575C287.473 29.2575 285.469 31.1017 285.469 34.7098V36.7946H293.327V45.6948H285.469V75.5224Z" fill="#2D3748"/>
<path d="M317.557 76.4846C304.807 76.4846 297.108 67.1835 297.108 56.1184C297.108 45.1335 304.807 35.8324 317.557 35.8324C330.388 35.8324 338.087 45.1335 338.087 56.1184C338.087 67.1835 330.388 76.4846 317.557 76.4846ZM317.557 67.424C323.893 67.424 327.501 62.2122 327.501 56.1184C327.501 50.1048 323.893 44.8929 317.557 44.8929C311.222 44.8929 307.694 50.1048 307.694 56.1184C307.694 62.2122 311.222 67.424 317.557 67.424Z" fill="#2D3748"/>
<path d="M356.228 75.5224H346.043V36.7946H356.228V42.0866C358.954 38.6388 363.766 35.8324 368.577 35.8324V45.7749C367.856 45.6146 366.893 45.5344 365.771 45.5344C362.403 45.5344 357.912 47.4588 356.228 49.9444V75.5224Z" fill="#2D3748"/>
<path d="M433.642 75.5224H423.377V51.0669C423.377 47.4588 421.773 44.8929 417.603 44.8929C413.994 44.8929 411.027 47.2984 409.584 49.3831V75.5224H399.319V51.0669C399.319 47.4588 397.715 44.8929 393.545 44.8929C390.017 44.8929 387.05 47.2984 385.526 49.4633V75.5224H375.342V36.7946H385.526V41.846C387.13 39.5208 392.262 35.8324 398.196 35.8324C403.89 35.8324 407.499 38.4784 408.942 42.8884C411.188 39.3604 416.32 35.8324 422.254 35.8324C429.391 35.8324 433.642 39.6009 433.642 47.5389V75.5224Z" fill="#2D3748"/>
<path d="M462.235 76.4846C450.447 76.4846 441.545 68.5466 441.545 56.1184C441.545 44.8929 449.805 35.8324 461.594 35.8324C473.141 35.8324 481 44.492 481 57.1608V59.4059H452.211C452.853 64.2969 456.782 68.3862 463.358 68.3862C466.646 68.3862 471.217 66.9429 473.703 64.5375L478.193 71.1124C474.344 74.6404 468.25 76.4846 462.235 76.4846ZM471.136 52.5102C470.896 48.8218 468.33 43.9308 461.594 43.9308C455.258 43.9308 452.532 48.6615 452.051 52.5102H471.136Z" fill="#2D3748"/>
</svg>
