<svg width="98" height="98" viewBox="0 0 98 98" fill="none" xmlns="http://www.w3.org/2000/svg">
<circle cx="49" cy="49" r="49" fill="white"/>
<path d="M48.9998 15.5911C57.8652 15.5911 65.9244 19.0441 71.9052 24.6788C72.3072 25.0575 72.3062 25.6918 71.9157 26.0824L63.8806 34.1174C63.4901 34.5079 62.8586 34.5059 62.4492 34.1353C58.8926 30.9155 54.1751 28.9543 48.9998 28.9543C37.9292 28.9545 28.9549 37.9287 28.9548 48.9993C28.9548 60.0699 37.9291 69.045 48.9998 69.0452C54.1755 69.0452 58.8935 67.0837 62.4502 63.8634C62.8596 63.4927 63.4911 63.4907 63.8817 63.8812L71.9167 71.9162C72.3072 72.3067 72.3082 72.941 71.9063 73.3198C65.9253 78.9554 57.866 82.4094 48.9998 82.4094C30.5485 82.4094 15.5906 67.4515 15.5906 49.0002C15.5906 30.5489 30.5484 15.5911 48.9998 15.5911Z" fill="#462AC4"/>
<ellipse cx="48.9992" cy="48.9996" rx="11.1364" ry="11.1364" fill="#462AC4"/>
</svg>
